<svg width="20" height="20" viewBox="0 0 20 20" fill="none" xmlns="http://www.w3.org/2000/svg">
<mask id="mask0_2072_38" style="mask-type:alpha" maskUnits="userSpaceOnUse" x="0" y="0" width="20" height="20">
<rect width="20" height="20" fill="#D9D9D9"/>
</mask>
<g mask="url(#mask0_2072_38)">
<path d="M9.04169 13.7115L13.7115 9.04169L12.9454 8.27565L9.04169 12.1796L7.26294 10.4006L6.51773 11.1667L9.04169 13.7115ZM10 17.5834C9.08655 17.5834 8.23065 17.4106 7.43231 17.0652C6.63398 16.7198 5.93787 16.2501 5.34398 15.6561C4.74995 15.0622 4.28023 14.3661 3.93481 13.5677C3.5894 12.7694 3.41669 11.9135 3.41669 11C3.41669 10.0865 3.5894 9.23065 3.93481 8.43231C4.28023 7.63398 4.74995 6.93787 5.34398 6.34398C5.93787 5.74995 6.63398 5.28023 7.43231 4.93481C8.23065 4.5894 9.08655 4.41669 10 4.41669C10.9135 4.41669 11.7694 4.5894 12.5677 4.93481C13.3661 5.28023 14.0622 5.74995 14.6561 6.34398C15.2501 6.93787 15.7198 7.63398 16.0652 8.43231C16.4106 9.23065 16.5834 10.0865 16.5834 11C16.5834 11.9135 16.4106 12.7694 16.0652 13.5677C15.7198 14.3661 15.2501 15.0622 14.6561 15.6561C14.0622 16.2501 13.3661 16.7198 12.5677 17.0652C11.7694 17.4106 10.9135 17.5834 10 17.5834ZM5.06565 2.8446L5.83981 3.61856L2.61856 6.83981L1.8446 6.06565L5.06565 2.8446ZM14.9344 2.8446L18.1554 6.06565L17.3815 6.83981L14.1602 3.61856L14.9344 2.8446ZM9.99544 16.5C11.521 16.5 12.8198 15.9655 13.8919 14.8965C14.964 13.8275 15.5 12.5302 15.5 11.0046C15.5 9.47905 14.9655 8.18023 13.8965 7.10815C12.8275 6.03606 11.5302 5.50002 10.0046 5.50002C8.47905 5.50002 7.18023 6.03453 6.10815 7.10356C5.03606 8.17259 4.50002 9.46988 4.50002 10.9954C4.50002 12.521 5.03453 13.8198 6.10356 14.8919C7.17259 15.964 8.46988 16.5 9.99544 16.5Z" fill="#2E739E"/>
</g>
</svg>
