<svg width="20" height="20" viewBox="0 0 20 20" fill="none" xmlns="http://www.w3.org/2000/svg">
<mask id="mask0_2072_269" style="mask-type:alpha" maskUnits="userSpaceOnUse" x="0" y="0" width="20" height="20">
<rect width="20" height="20" fill="#D9D9D9"/>
</mask>
<g mask="url(#mask0_2072_269)">
<path d="M3.75648 15.5833C3.38134 15.5833 3.06426 15.4537 2.80523 15.1946C2.5462 14.9354 2.41669 14.6181 2.41669 14.2427V5.75062C2.41669 5.3752 2.5462 5.05902 2.80523 4.80207C3.06426 4.54513 3.38134 4.41666 3.75648 4.41666H16.2436C16.6187 4.41666 16.9358 4.54624 17.1948 4.80541C17.4538 5.06457 17.5834 5.38186 17.5834 5.75728V14.2494C17.5834 14.6248 17.4538 14.941 17.1948 15.1979C16.9358 15.4549 16.6187 15.5833 16.2436 15.5833H3.75648ZM10 10.6314L3.50002 6.80603V14.2435C3.50002 14.3184 3.52405 14.3799 3.5721 14.4279C3.62016 14.476 3.68162 14.5 3.75648 14.5H16.2436C16.3184 14.5 16.3799 14.476 16.4279 14.4279C16.476 14.3799 16.5 14.3184 16.5 14.2435V6.80603L10 10.6314ZM10 9.22916L16.3719 5.49999H3.62815L10 9.22916ZM3.50002 6.80603V5.49999V14.2435C3.50002 14.3184 3.52405 14.3799 3.5721 14.4279C3.62016 14.476 3.68162 14.5 3.75648 14.5H3.50002V6.80603Z" fill="white"/>
</g>
</svg>
