<svg width="16" height="16" viewBox="0 0 16 16" fill="none" xmlns="http://www.w3.org/2000/svg">
<g clip-path="url(#clip0_2072_216)">
<path fill-rule="evenodd" clip-rule="evenodd" d="M8 4.16667C8.27615 4.16667 8.5 4.39053 8.5 4.66667V8.66667C8.5 8.94281 8.27615 9.16667 8 9.16667C7.72386 9.16667 7.5 8.94281 7.5 8.66667V4.66667C7.5 4.39053 7.72386 4.16667 8 4.16667Z" fill="#8C6A04"/>
<path fill-rule="evenodd" clip-rule="evenodd" d="M8.34115 10.961C8.54641 11.1457 8.56305 11.4618 8.37832 11.6671L8.37165 11.6745C8.18692 11.8797 7.87078 11.8964 7.66552 11.7117C7.46027 11.5269 7.44363 11.2108 7.62836 11.0055L7.63502 10.9981C7.81975 10.7929 8.1359 10.7762 8.34115 10.961Z" fill="#8C6A04"/>
<path fill-rule="evenodd" clip-rule="evenodd" d="M7.99998 1.83333C4.59422 1.83333 1.83331 4.59424 1.83331 8C1.83331 11.4058 4.59422 14.1667 7.99998 14.1667C11.4057 14.1667 14.1666 11.4058 14.1666 8C14.1666 4.59424 11.4057 1.83333 7.99998 1.83333ZM0.833313 8C0.833313 4.04195 4.04194 0.833328 7.99998 0.833328C11.958 0.833328 15.1666 4.04195 15.1666 8C15.1666 11.958 11.958 15.1667 7.99998 15.1667C4.04194 15.1667 0.833313 11.958 0.833313 8Z" fill="#FFECB2"/>
</g>
<defs>
<clipPath id="clip0_2072_216">
<rect width="16" height="16" rx="8" fill="white"/>
</clipPath>
</defs>
</svg>
